<svg width="1920" height="1080" viewBox="0 0 1920 1080" fill="none" xmlns="http://www.w3.org/2000/svg">
<g opacity="0.7" clip-path="url(#clip0_1_19)">
<path d="M1920 0H0V1080H1920V0Z" fill="#060C7F"/>
<path d="M2048 1080H0V696.214C2.56889 607.359 34.5689 564.795 96 568.524C121.476 512.801 153.476 503.357 192 540.193C243.12 521.576 275.12 549.238 288 623.179C335.858 538.116 389.191 530.19 448 599.4C530.907 565.033 584.24 607.809 608 727.727C622.622 594.591 675.956 538.598 768 559.748C807.458 524.25 839.458 535.044 864 592.129C912.524 569.745 944.524 593.64 960 663.814C1001.87 631.8 1033.87 646.071 1056 706.629C1082.66 652.603 1114.66 644.869 1152 683.428C1188.75 582.294 1242.08 558.302 1312 611.453C1351.13 513.752 1404.46 493.2 1472 549.797C1545.1 501.236 1598.44 529.823 1632 635.561C1671.09 537.821 1724.43 517.224 1792 573.769C1819.11 520.412 1851.11 513.341 1888 552.555C1951.05 489.465 2004.38 503.524 2048 594.733V1080Z" fill="#DCE7FF"/>
<path d="M1952 1080H0V824.638C13.1822 751.134 45.1822 723.915 96 742.982C116.169 679.584 148.169 662.471 192 691.644C263.031 640.099 316.364 665.704 352 768.459C391.627 733.204 423.627 744.242 448 801.572C466.062 735.126 498.062 714.966 544 741.092C587.449 649.652 640.782 635.361 704 698.22C778.116 651.137 831.449 681.191 864 788.381C927.6 726.088 980.933 740.931 1024 832.911C1026.3 743.67 1058.3 700.708 1120 704.025C1178.99 635.059 1232.32 643.236 1280 728.556C1357.4 686.205 1410.73 721.003 1440 832.95C1475.77 730.401 1529.1 705.002 1600 756.752C1661.56 691.515 1714.9 703.427 1760 792.489C1773.8 719.884 1805.8 693.566 1856 713.533C1883.44 660.651 1915.44 654.056 1952 693.746V1080Z" fill="#A8C9FF"/>
<path d="M2016 1080H0V907.161C49.7956 824.901 103.129 819.784 160 891.81C234.889 845.846 288.222 877.024 320 985.346C341.6 924.017 373.6 908.974 416 940.217C446.338 829.8 499.671 796.532 576 840.414C603.244 787.249 635.244 780.371 672 819.778C760.978 794.179 814.311 845.73 832 974.43C857.351 856.813 910.684 816.339 992 853.007C1016.13 795.343 1048.13 783.964 1088 818.871C1133.66 792.347 1165.66 812.109 1184 878.156C1241.88 807.583 1295.22 814.159 1344 897.885C1380.85 796.905 1434.19 773.074 1504 826.393C1540.65 786.831 1572.65 793.556 1600 846.566C1682.19 811.157 1735.52 852.891 1760 971.769C1781.35 910.08 1813.35 894.677 1856 925.56C1885.09 813.356 1938.43 778.294 2016 820.376V1080Z" fill="#82B6F8"/>
<path d="M1952 1080H0V951.866C82.1156 916.354 135.449 957.986 160 1076.76C226.116 1018.12 279.449 1036.61 320 1132.25C333.947 1059.85 365.947 1033.73 416 1053.89C423.929 972.784 455.929 937.974 512 949.455C548.889 910.241 580.889 917.312 608 970.669C650.284 939.259 682.284 954.135 704 1015.3C748.284 986.779 780.284 1004.54 800 1068.58C831.298 959.567 884.631 927.688 960 972.945C1004.07 944.119 1036.07 961.579 1056 1025.33C1103.86 1001.98 1135.86 1024.91 1152 1094.12C1156.61 1008.22 1188.61 968.606 1248 975.279C1309.01 909.244 1362.35 920.353 1408 1008.6C1473.77 949.449 1527.1 967.436 1568 1062.57C1612.97 1035.04 1644.97 1053.79 1664 1118.82C1690.76 1064.96 1722.76 1057.39 1760 1096.1C1760.24 1003.88 1792.24 957.934 1856 958.269C1907.58 940.307 1939.58 968.631 1952 1043.24V1080Z" fill="white"/>
</g>
<defs>
<clipPath id="clip0_1_19">
<rect width="1920" height="1080" fill="white"/>
</clipPath>
</defs>
</svg>
